<svg id="svg" version="1.1" xmlns="http://www.w3.org/2000/svg" xmlns:xlink="http://www.w3.org/1999/xlink" width="400" height="400" viewBox="0, 0, 400,400"><g id="svgg"><path id="path0" d="M106.800 3.451 L 106.800 6.903 104.159 9.702 C 97.260 17.015,96.355 19.527,96.804 30.102 C 97.002 34.776,97.369 44.270,97.619 51.200 C 97.996 61.631,98.202 64.167,98.819 65.933 C 100.245 70.023,103.066 73.910,105.859 75.636 L 107.240 76.490 109.320 75.628 C 112.530 74.298,116.485 71.823,119.896 69.008 C 121.603 67.599,123.509 66.029,124.131 65.519 C 125.860 64.101,127.465 52.634,126.808 46.400 C 126.093 39.624,126.020 38.624,125.577 29.600 L 125.156 21.000 123.339 18.083 C 121.213 14.670,118.345 12.450,111.729 9.093 L 107.604 7.000 107.602 3.500 C 107.601 1.435,107.436 0.000,107.200 0.000 C 106.964 0.000,106.800 1.417,106.800 3.451 M292.400 3.536 C 292.400 7.659,293.397 6.789,284.324 10.592 C 277.825 13.317,276.598 14.343,274.068 19.171 L 272.899 21.400 272.662 36.600 C 272.178 67.679,272.365 68.219,285.400 73.334 C 293.288 76.430,292.778 76.353,294.967 74.781 C 301.903 69.800,302.960 64.406,302.530 36.200 L 302.305 21.400 300.478 17.894 C 299.474 15.966,297.425 12.754,295.926 10.758 L 293.200 7.128 293.200 3.564 C 293.200 1.455,293.037 0.000,292.800 0.000 C 292.564 0.000,292.400 1.445,292.400 3.536 M333.459 35.708 C 330.687 37.199,327.199 39.850,323.726 43.106 C 322.145 44.588,319.833 46.687,318.588 47.771 L 316.326 49.742 316.608 56.771 C 316.874 63.423,316.834 64.047,315.861 68.400 C 315.295 70.930,314.712 74.260,314.566 75.800 C 314.226 79.375,309.512 86.076,306.170 87.737 C 305.034 88.301,303.919 89.447,301.132 92.910 C 300.498 93.697,298.655 94.945,296.597 95.978 L 293.130 97.720 285.942 97.262 C 281.989 97.010,278.359 96.599,277.877 96.349 C 275.703 95.222,273.602 93.077,272.663 91.026 C 271.397 88.260,268.778 85.420,266.101 83.909 C 263.528 82.457,260.937 79.593,260.403 77.610 C 258.725 71.381,258.000 65.343,258.000 57.609 C 258.000 50.799,257.892 49.412,257.210 47.428 C 255.172 41.505,251.356 37.074,247.936 36.660 C 246.761 36.518,243.820 36.137,241.400 35.813 C 237.813 35.333,230.165 35.219,199.988 35.193 L 162.976 35.161 156.588 36.413 C 148.266 38.043,144.927 40.392,141.688 46.894 L 140.376 49.527 140.416 57.464 C 140.455 65.164,140.413 65.596,139.015 71.988 C 137.429 79.237,137.298 79.482,133.705 81.875 C 130.784 83.822,128.390 86.621,126.436 90.377 C 124.025 95.012,122.879 95.706,115.870 96.775 C 104.090 98.572,102.596 97.950,90.862 86.373 C 84.476 80.073,82.524 73.142,82.756 57.600 L 82.872 49.800 81.736 48.393 C 78.699 44.630,72.411 39.468,67.359 36.589 L 64.219 34.800 57.554 34.800 C 52.536 34.800,49.962 34.990,47.144 35.570 C 45.085 35.994,41.690 36.635,39.600 36.995 C 37.000 37.443,34.600 38.197,32.000 39.385 C 29.910 40.339,26.526 41.703,24.480 42.417 C 18.867 44.375,15.682 47.590,14.392 52.600 C 14.109 53.700,13.096 56.781,12.140 59.447 C 8.487 69.639,8.765 56.792,8.799 213.600 C 8.832 370.661,8.579 359.018,12.173 369.000 C 13.123 371.640,14.208 374.869,14.584 376.176 C 15.904 380.769,18.777 383.809,24.600 386.774 C 26.800 387.895,29.815 389.708,31.300 390.804 L 34.000 392.796 34.000 396.398 L 34.000 400.000 199.400 400.000 L 364.800 400.000 364.800 396.434 L 364.800 392.869 367.300 390.893 C 369.989 388.767,374.179 385.988,377.400 384.193 C 381.244 382.052,383.005 379.670,384.771 374.226 C 387.258 366.558,387.629 364.681,388.011 357.844 C 388.541 348.352,388.507 78.930,387.975 70.962 C 387.307 60.966,384.394 51.089,381.104 47.665 C 378.697 45.160,366.270 39.128,361.266 38.036 C 359.340 37.615,355.882 36.729,353.582 36.066 C 347.225 34.234,336.551 34.044,333.459 35.708 M352.088 141.065 C 354.373 142.742,356.783 145.641,358.332 148.576 L 359.400 150.600 359.400 250.000 L 359.400 349.400 357.800 352.400 C 355.530 356.658,351.373 360.950,348.670 361.828 C 347.532 362.198,344.567 363.297,342.082 364.271 L 337.564 366.042 199.882 366.039 L 62.200 366.036 56.200 364.764 L 50.200 363.492 48.078 361.446 C 41.798 355.391,40.184 351.994,39.412 343.207 C 38.609 334.062,38.540 164.247,39.336 155.162 C 39.930 148.376,41.880 145.014,47.202 141.599 L 49.143 140.353 193.872 140.347 C 273.472 140.343,340.490 140.202,342.800 140.033 C 350.215 139.490,349.894 139.454,352.088 141.065 M290.731 177.319 C 286.864 180.265,282.388 190.415,283.096 194.630 C 284.655 203.908,286.726 208.286,290.778 210.867 L 292.557 212.000 299.731 212.000 C 314.601 212.000,320.532 208.235,324.424 196.327 L 325.606 192.709 323.775 188.970 C 319.506 180.252,311.594 176.000,299.644 176.000 L 292.462 176.000 290.731 177.319 M88.170 177.579 C 80.331 180.294,76.485 183.764,73.966 190.392 C 72.813 193.427,73.404 196.109,76.892 203.677 L 78.495 207.154 81.947 208.535 C 83.846 209.295,87.070 210.374,89.110 210.933 L 92.821 211.950 99.995 211.390 C 110.943 210.535,113.405 208.192,116.643 195.554 C 117.684 191.490,114.846 184.812,110.021 179.971 L 107.400 177.341 101.400 176.867 C 93.210 176.219,91.892 176.290,88.170 177.579 M157.000 177.607 L 150.200 178.747 148.733 180.387 C 147.095 182.219,144.020 187.937,143.022 191.004 C 141.979 194.213,145.496 205.273,148.431 208.013 C 150.679 210.112,158.069 211.312,170.008 211.517 L 178.616 211.665 180.830 209.333 C 187.491 202.313,186.707 183.441,179.503 177.379 C 177.712 175.872,166.681 175.984,157.000 177.607 M219.556 178.069 C 216.873 180.676,212.800 189.740,212.800 193.103 C 212.800 198.347,216.445 207.804,219.295 209.956 L 221.473 211.600 228.436 211.595 C 238.626 211.588,249.740 210.381,251.072 209.139 C 252.921 207.413,254.386 203.577,255.948 196.366 L 256.692 192.933 255.731 189.604 C 254.718 186.096,252.562 181.433,251.001 179.374 L 250.072 178.148 243.136 177.484 C 239.321 177.120,232.860 176.708,228.778 176.570 L 221.356 176.319 219.556 178.069 M290.548 234.543 C 288.144 236.705,285.837 240.854,284.013 246.297 L 282.796 249.930 283.410 254.665 C 284.782 265.241,285.225 266.145,290.420 268.972 L 292.416 270.059 300.508 269.925 L 308.600 269.791 312.977 268.281 C 321.782 265.243,321.729 265.307,323.865 255.113 L 324.931 250.026 323.830 247.435 C 319.780 237.905,312.491 233.455,300.167 232.986 L 292.600 232.698 290.548 234.543 M88.784 234.361 C 78.175 238.306,72.714 245.480,74.203 253.514 C 76.425 265.501,76.427 265.504,83.200 267.605 C 92.669 270.543,104.870 270.623,109.600 267.779 C 113.846 265.226,114.133 264.707,115.623 256.880 L 116.941 249.959 115.607 246.680 C 113.638 241.840,110.736 237.329,108.167 235.116 C 107.577 234.609,105.786 234.273,101.230 233.816 C 93.148 233.005,92.332 233.041,88.784 234.361 M161.200 233.885 C 152.460 235.420,150.165 236.021,149.314 236.996 C 147.846 238.679,145.386 243.203,144.083 246.615 L 142.856 249.829 143.584 254.015 C 145.290 263.820,145.267 263.735,146.564 265.135 C 148.971 267.733,149.518 267.942,156.172 268.796 C 160.635 269.369,164.762 269.600,170.555 269.600 L 178.680 269.600 180.339 268.399 C 183.966 265.771,184.765 263.382,185.821 252.000 C 186.217 247.730,183.077 238.565,180.027 235.092 L 178.717 233.600 170.459 233.654 C 165.916 233.684,161.750 233.788,161.200 233.885 M219.250 235.439 C 217.356 237.589,214.937 242.502,213.594 246.923 L 212.645 250.045 213.711 257.045 C 214.907 264.895,215.059 265.226,218.749 267.999 L 220.880 269.600 228.782 269.600 C 235.933 269.600,244.310 269.174,248.642 268.590 C 252.691 268.044,254.103 265.523,255.360 256.590 L 256.311 249.842 255.374 246.712 C 253.709 241.150,250.668 235.207,249.481 235.195 C 249.216 235.193,246.131 234.833,242.624 234.395 C 238.254 233.850,233.829 233.600,228.558 233.600 L 220.868 233.600 219.250 235.439 M290.468 294.042 C 287.796 296.766,285.807 299.748,284.103 303.589 L 282.767 306.600 282.995 311.800 C 283.470 322.649,283.864 323.497,289.924 326.727 L 292.312 328.000 299.529 328.000 C 307.764 328.000,313.272 326.929,318.925 324.227 C 323.583 322.002,323.366 322.402,324.331 314.212 L 325.174 307.063 323.967 304.798 C 321.555 300.273,318.449 297.716,311.050 294.166 L 307.400 292.414 299.993 292.149 L 292.586 291.884 290.468 294.042 M88.795 293.741 C 81.127 296.794,78.361 298.488,76.515 301.266 C 73.055 306.468,73.140 305.813,74.428 317.325 L 74.912 321.649 76.727 323.035 C 84.911 329.284,106.881 329.308,113.716 323.075 L 115.552 321.400 116.180 315.800 C 117.166 307.011,117.168 307.034,115.183 303.180 C 113.916 300.721,112.619 298.972,110.421 296.762 L 107.400 293.723 102.600 293.272 C 91.926 292.267,92.549 292.246,88.795 293.741 M156.250 294.130 L 149.899 295.400 148.127 297.400 C 147.152 298.500,145.517 301.078,144.494 303.128 L 142.634 306.856 143.333 314.128 L 144.032 321.400 145.880 323.123 C 149.404 326.408,153.084 327.130,168.076 327.479 C 178.907 327.730,178.847 327.738,181.509 325.634 C 184.929 322.931,185.197 322.206,185.684 314.344 C 186.247 305.254,184.996 300.603,180.454 294.900 L 178.781 292.800 170.691 292.830 C 163.273 292.858,162.072 292.966,156.250 294.130 M219.676 294.300 C 217.622 296.473,215.453 299.975,213.970 303.512 L 212.676 306.600 213.167 314.000 C 213.738 322.581,213.849 322.835,218.417 325.900 L 220.951 327.600 228.375 327.603 C 245.159 327.609,250.199 326.878,253.108 324.015 C 255.412 321.747,255.358 321.954,256.024 313.000 L 256.470 307.000 255.260 303.691 C 253.816 299.743,250.713 294.880,249.469 294.614 C 245.382 293.740,234.371 292.800,228.213 292.800 L 221.094 292.800 219.676 294.300 " stroke="none" fill="#000000" fill-rule="evenodd"></path><path id="path1" d="M0.000 200.000 L 0.000 400.000 17.000 400.000 L 34.000 400.000 34.000 396.398 L 34.000 392.796 31.300 390.804 C 29.815 389.708,26.800 387.895,24.600 386.774 C 18.777 383.809,15.904 380.769,14.584 376.176 C 14.208 374.869,13.123 371.640,12.173 369.000 C 8.579 359.018,8.832 370.661,8.799 213.600 C 8.765 56.792,8.487 69.639,12.140 59.447 C 13.096 56.781,14.109 53.700,14.392 52.600 C 15.682 47.590,18.867 44.375,24.480 42.417 C 26.526 41.703,29.910 40.339,32.000 39.385 C 34.600 38.197,37.000 37.443,39.600 36.995 C 41.690 36.635,45.085 35.994,47.144 35.570 C 49.962 34.990,52.536 34.800,57.554 34.800 L 64.219 34.800 67.359 36.589 C 72.411 39.468,78.699 44.630,81.736 48.393 L 82.872 49.800 82.756 57.600 C 82.524 73.142,84.476 80.073,90.862 86.373 C 102.596 97.950,104.090 98.572,115.870 96.775 C 122.879 95.706,124.025 95.012,126.436 90.377 C 128.390 86.621,130.784 83.822,133.705 81.875 C 137.298 79.482,137.429 79.237,139.015 71.988 C 140.413 65.596,140.455 65.164,140.416 57.464 L 140.376 49.527 141.688 46.894 C 144.927 40.392,148.266 38.043,156.588 36.413 L 162.976 35.161 199.988 35.193 C 230.165 35.219,237.813 35.333,241.400 35.813 C 243.820 36.137,246.761 36.518,247.936 36.660 C 251.356 37.074,255.172 41.505,257.210 47.428 C 257.892 49.412,258.000 50.799,258.000 57.609 C 258.000 65.343,258.725 71.381,260.403 77.610 C 260.937 79.593,263.528 82.457,266.101 83.909 C 268.778 85.420,271.397 88.260,272.663 91.026 C 273.602 93.077,275.703 95.222,277.877 96.349 C 278.359 96.599,281.989 97.010,285.942 97.262 L 293.130 97.720 296.597 95.978 C 298.655 94.945,300.498 93.697,301.132 92.910 C 303.919 89.447,305.034 88.301,306.170 87.737 C 309.512 86.076,314.226 79.375,314.566 75.800 C 314.712 74.260,315.295 70.930,315.861 68.400 C 316.834 64.047,316.874 63.423,316.608 56.771 L 316.326 49.742 318.588 47.771 C 319.833 46.687,322.145 44.588,323.726 43.106 C 327.143 39.902,330.652 37.227,333.398 35.732 C 336.449 34.070,347.311 34.248,353.582 36.062 C 355.882 36.727,359.340 37.615,361.266 38.036 C 366.270 39.128,378.697 45.160,381.104 47.665 C 384.394 51.089,387.307 60.966,387.975 70.962 C 388.507 78.930,388.541 348.352,388.011 357.844 C 387.629 364.681,387.258 366.558,384.771 374.226 C 383.005 379.670,381.244 382.052,377.400 384.193 C 374.179 385.988,369.989 388.767,367.300 390.893 L 364.800 392.869 364.800 396.434 L 364.800 400.000 382.400 400.000 L 400.000 400.000 400.000 200.000 L 400.000 0.000 346.600 0.000 L 293.200 0.000 293.200 3.564 L 293.200 7.128 295.926 10.758 C 297.425 12.754,299.474 15.966,300.478 17.894 L 302.305 21.400 302.530 36.200 C 302.960 64.406,301.903 69.800,294.967 74.781 C 292.778 76.353,293.288 76.430,285.400 73.334 C 272.365 68.219,272.178 67.679,272.662 36.600 L 272.899 21.400 274.068 19.171 C 276.598 14.343,277.825 13.317,284.324 10.592 C 293.397 6.789,292.400 7.659,292.400 3.536 L 292.400 0.000 200.000 0.000 L 107.600 0.000 107.602 3.500 L 107.604 7.000 111.729 9.093 C 118.345 12.450,121.213 14.670,123.339 18.083 L 125.156 21.000 125.577 29.600 C 126.020 38.624,126.093 39.624,126.808 46.400 C 127.465 52.634,125.860 64.101,124.131 65.519 C 123.509 66.029,121.603 67.599,119.896 69.008 C 116.485 71.823,112.530 74.298,109.320 75.628 L 107.240 76.490 105.859 75.636 C 103.066 73.910,100.245 70.023,98.819 65.933 C 98.202 64.167,97.996 61.631,97.619 51.200 C 97.369 44.270,97.002 34.776,96.804 30.102 C 96.355 19.527,97.260 17.015,104.159 9.702 L 106.800 6.903 106.800 3.451 L 106.800 0.000 53.400 0.000 L 0.000 0.000 0.000 200.000 M342.800 140.033 C 340.490 140.202,273.472 140.343,193.872 140.347 L 49.143 140.353 47.202 141.599 C 41.880 145.014,39.930 148.376,39.336 155.162 C 38.540 164.247,38.609 334.062,39.412 343.207 C 40.184 351.994,41.798 355.391,48.078 361.446 L 50.200 363.492 56.200 364.764 L 62.200 366.036 199.882 366.039 L 337.564 366.042 342.082 364.271 C 344.567 363.297,347.532 362.198,348.670 361.828 C 351.373 360.950,355.530 356.658,357.800 352.400 L 359.400 349.400 359.400 250.000 L 359.400 150.600 358.332 148.576 C 356.783 145.641,354.373 142.742,352.088 141.065 C 349.894 139.454,350.215 139.490,342.800 140.033 M310.113 177.256 C 316.420 179.665,321.244 183.800,323.775 188.970 L 325.606 192.709 324.424 196.327 C 320.532 208.235,314.601 212.000,299.731 212.000 L 292.557 212.000 290.778 210.867 C 286.726 208.286,284.655 203.908,283.096 194.630 C 282.388 190.415,286.864 180.265,290.731 177.319 L 292.462 176.000 299.644 176.000 C 306.730 176.000,306.870 176.017,310.113 177.256 M101.400 176.867 L 107.400 177.341 110.021 179.971 C 114.846 184.812,117.684 191.490,116.643 195.554 C 113.405 208.192,110.943 210.535,99.995 211.390 L 92.821 211.950 89.110 210.933 C 87.070 210.374,83.846 209.295,81.947 208.535 L 78.495 207.154 76.892 203.677 C 73.404 196.109,72.813 193.427,73.966 190.392 C 76.485 183.764,80.331 180.294,88.170 177.579 C 91.892 176.290,93.210 176.219,101.400 176.867 M179.503 177.379 C 182.225 179.670,185.715 188.528,185.737 193.200 C 185.764 199.067,183.496 206.523,180.830 209.333 L 178.616 211.665 170.008 211.517 C 158.069 211.312,150.679 210.112,148.431 208.013 C 145.496 205.273,141.979 194.213,143.022 191.004 C 144.020 187.937,147.095 182.219,148.733 180.387 L 150.200 178.747 157.000 177.607 C 166.681 175.984,177.712 175.872,179.503 177.379 M243.136 177.484 L 250.072 178.148 251.001 179.374 C 252.562 181.433,254.718 186.096,255.731 189.604 L 256.692 192.933 255.948 196.366 C 254.386 203.577,252.921 207.413,251.072 209.139 C 249.740 210.381,238.626 211.588,228.436 211.595 L 221.473 211.600 219.295 209.956 C 216.445 207.804,212.800 198.347,212.800 193.103 C 212.800 189.740,216.873 180.676,219.556 178.069 L 221.356 176.319 228.778 176.570 C 232.860 176.708,239.321 177.120,243.136 177.484 M310.698 234.580 C 316.787 237.266,321.446 241.827,323.830 247.435 L 324.931 250.026 323.865 255.113 C 321.729 265.307,321.782 265.243,312.977 268.281 L 308.600 269.791 300.508 269.925 L 292.416 270.059 290.420 268.972 C 285.225 266.145,284.782 265.241,283.410 254.665 L 282.796 249.930 284.013 246.297 C 285.837 240.854,288.144 236.705,290.548 234.543 L 292.600 232.698 300.167 232.986 C 307.549 233.267,307.807 233.306,310.698 234.580 M101.230 233.816 C 105.786 234.273,107.577 234.609,108.167 235.116 C 110.736 237.329,113.638 241.840,115.607 246.680 L 116.941 249.959 115.623 256.880 C 114.133 264.707,113.846 265.226,109.600 267.779 C 104.870 270.623,92.669 270.543,83.200 267.605 C 76.427 265.504,76.425 265.501,74.203 253.514 C 73.200 248.104,76.179 241.531,81.099 238.300 C 88.646 233.343,91.088 232.799,101.230 233.816 M180.027 235.092 C 183.077 238.565,186.217 247.730,185.821 252.000 C 184.765 263.382,183.966 265.771,180.339 268.399 L 178.680 269.600 170.555 269.600 C 164.762 269.600,160.635 269.369,156.172 268.796 C 149.518 267.942,148.971 267.733,146.564 265.135 C 145.267 263.735,145.290 263.820,143.584 254.015 L 142.856 249.829 144.083 246.615 C 145.386 243.203,147.846 238.679,149.314 236.996 C 150.165 236.021,152.460 235.420,161.200 233.885 C 161.750 233.788,165.916 233.684,170.459 233.654 L 178.717 233.600 180.027 235.092 M242.624 234.395 C 246.131 234.833,249.216 235.193,249.481 235.195 C 250.668 235.207,253.709 241.150,255.374 246.712 L 256.311 249.842 255.360 256.590 C 254.103 265.523,252.691 268.044,248.642 268.590 C 244.310 269.174,235.933 269.600,228.782 269.600 L 220.880 269.600 218.749 267.999 C 215.059 265.226,214.907 264.895,213.711 257.045 L 212.645 250.045 213.594 246.923 C 214.937 242.502,217.356 237.589,219.250 235.439 L 220.868 233.600 228.558 233.600 C 233.829 233.600,238.254 233.850,242.624 234.395 M311.050 294.166 C 318.449 297.716,321.555 300.273,323.967 304.798 L 325.174 307.063 324.331 314.212 C 323.366 322.402,323.583 322.002,318.925 324.227 C 313.272 326.929,307.764 328.000,299.529 328.000 L 292.312 328.000 289.924 326.727 C 283.864 323.497,283.470 322.649,282.995 311.800 L 282.767 306.600 284.103 303.589 C 285.807 299.748,287.796 296.766,290.468 294.042 L 292.586 291.884 299.993 292.149 L 307.400 292.414 311.050 294.166 M102.600 293.272 L 107.400 293.723 110.421 296.762 C 112.619 298.972,113.916 300.721,115.183 303.180 C 117.168 307.034,117.166 307.011,116.180 315.800 L 115.552 321.400 113.716 323.075 C 106.881 329.308,84.911 329.284,76.727 323.035 L 74.912 321.649 74.428 317.325 C 73.140 305.813,73.055 306.468,76.515 301.266 C 78.361 298.488,81.127 296.794,88.795 293.741 C 92.549 292.246,91.926 292.267,102.600 293.272 M180.454 294.900 C 184.996 300.603,186.247 305.254,185.684 314.344 C 185.197 322.206,184.929 322.931,181.509 325.634 C 178.847 327.738,178.907 327.730,168.076 327.479 C 153.084 327.130,149.404 326.408,145.880 323.123 L 144.032 321.400 143.333 314.128 L 142.634 306.856 144.494 303.128 C 145.517 301.078,147.152 298.500,148.127 297.400 L 149.899 295.400 156.250 294.130 C 162.072 292.966,163.273 292.858,170.691 292.830 L 178.781 292.800 180.454 294.900 M241.966 293.614 C 245.615 294.062,248.991 294.512,249.469 294.614 C 250.713 294.880,253.816 299.743,255.260 303.691 L 256.470 307.000 256.024 313.000 C 255.358 321.954,255.412 321.747,253.108 324.015 C 250.199 326.878,245.159 327.609,228.375 327.603 L 220.951 327.600 218.417 325.900 C 213.849 322.835,213.738 322.581,213.167 314.000 L 212.676 306.600 213.970 303.512 C 215.453 299.975,217.622 296.473,219.676 294.300 L 221.094 292.800 228.213 292.800 C 232.932 292.800,237.567 293.074,241.966 293.614 " stroke="none" fill="#fafafa" fill-rule="evenodd"></path></g></svg>