<svg id="svg" version="1.1" xmlns="http://www.w3.org/2000/svg" xmlns:xlink="http://www.w3.org/1999/xlink" width="400" height="393.30543933054395" viewBox="0, 0, 400,393.30543933054395"><g id="svgg"><path id="path0" d="M105.302 5.672 C 101.029 7.429,98.462 10.233,97.089 14.647 C 95.868 18.568,95.983 64.119,97.223 67.896 C 101.161 79.892,117.932 80.788,123.587 69.305 L 124.877 66.684 124.990 42.158 C 125.115 14.820,125.094 14.559,122.519 10.816 C 118.746 5.332,111.437 3.149,105.302 5.672 M282.329 5.638 C 278.007 7.452,275.240 10.545,273.964 14.988 C 273.406 16.929,273.343 20.144,273.440 41.930 L 273.550 66.667 274.680 69.114 C 279.779 80.154,295.180 80.267,300.578 69.305 L 301.868 66.684 301.981 42.303 C 302.097 17.131,302.027 15.744,300.473 12.438 C 297.521 6.157,288.843 2.905,282.329 5.638 M36.699 34.831 C 23.062 37.822,12.248 48.321,8.569 62.144 L 7.680 65.487 7.558 208.063 C 7.476 304.217,7.568 351.792,7.842 354.179 C 9.749 370.822,22.215 384.131,38.221 386.614 C 40.345 386.944,83.063 387.030,200.983 386.943 L 360.865 386.824 364.405 385.716 C 376.974 381.784,386.106 372.227,389.680 359.264 L 390.757 355.359 390.757 210.619 L 390.757 65.880 389.703 62.063 C 386.353 49.936,378.385 40.860,367.355 36.605 C 361.429 34.320,360.212 34.218,338.695 34.218 L 319.049 34.218 318.882 51.032 C 318.725 66.811,318.662 68.040,317.854 70.993 C 310.263 98.764,273.219 102.883,259.976 77.428 C 256.812 71.348,256.699 70.485,256.534 51.229 L 256.388 34.218 199.226 34.218 L 142.063 34.218 141.890 51.032 C 141.727 66.771,141.661 68.048,140.860 70.993 C 133.229 99.029,95.448 102.866,82.777 76.893 C 79.777 70.742,79.739 70.438,79.554 51.229 L 79.391 34.218 59.263 34.258 C 43.889 34.288,38.560 34.423,36.699 34.831 M361.451 240.216 C 361.447 325.636,361.357 342.712,360.905 344.410 C 359.291 350.475,355.069 354.951,348.848 357.197 L 346.313 358.112 199.213 358.112 C 56.763 358.112,52.046 358.089,49.951 357.379 C 43.859 355.316,39.494 351.005,37.717 345.294 C 36.993 342.970,36.971 339.895,36.971 240.476 L 36.971 138.053 199.213 138.053 L 361.455 138.053 361.451 240.216 M73.550 191.740 L 73.550 208.063 95.575 208.063 L 117.601 208.063 117.601 191.740 L 117.601 175.418 95.575 175.418 L 73.550 175.418 73.550 191.740 M142.702 176.303 C 142.633 176.790,142.624 184.135,142.683 192.625 L 142.791 208.063 164.807 208.063 L 186.824 208.063 186.824 191.740 L 186.824 175.418 164.826 175.418 L 142.828 175.418 142.702 176.303 M211.603 191.740 L 211.603 208.063 233.628 208.063 L 255.654 208.063 255.654 191.740 L 255.654 175.418 233.628 175.418 L 211.603 175.418 211.603 191.740 M280.826 191.740 L 280.826 208.063 302.852 208.063 L 324.877 208.063 324.877 191.740 L 324.877 175.418 302.852 175.418 L 280.826 175.418 280.826 191.740 M73.550 247.984 L 73.550 264.307 95.575 264.307 L 117.601 264.307 117.601 247.984 L 117.601 231.662 95.575 231.662 L 73.550 231.662 73.550 247.984 M142.758 231.957 C 142.749 232.119,142.749 239.154,142.757 247.591 C 142.765 256.028,142.772 263.240,142.773 263.618 C 142.773 264.266,144.084 264.307,164.798 264.307 L 186.824 264.307 186.824 247.984 L 186.824 231.662 164.798 231.662 C 152.684 231.662,142.766 231.794,142.758 231.957 M211.603 247.984 L 211.603 264.307 233.628 264.307 L 255.654 264.307 255.654 247.984 L 255.654 231.662 233.628 231.662 L 211.603 231.662 211.603 247.984 M280.826 247.984 L 280.826 264.307 302.852 264.307 L 324.877 264.307 324.877 247.984 L 324.877 231.662 302.852 231.662 L 280.826 231.662 280.826 247.984 M73.644 304.326 L 73.746 320.747 95.674 320.849 L 117.601 320.951 117.601 304.428 L 117.601 287.906 95.571 287.906 L 73.541 287.906 73.644 304.326 M142.758 288.201 C 142.744 288.490,142.751 319.500,142.766 320.443 C 142.771 320.819,147.607 320.905,164.700 320.836 L 186.627 320.747 186.730 304.326 L 186.833 287.906 164.803 287.906 C 152.686 287.906,142.766 288.038,142.758 288.201 M211.697 304.326 L 211.799 320.747 233.727 320.849 L 255.654 320.951 255.654 304.428 L 255.654 287.906 233.624 287.906 L 211.594 287.906 211.697 304.326 M280.826 304.415 L 280.826 320.925 302.753 320.836 L 324.680 320.747 324.783 304.326 L 324.886 287.906 302.856 287.906 L 280.826 287.906 280.826 304.415 " stroke="none" fill="#040404" fill-rule="evenodd"></path><path id="path1" d="M0.000 196.657 L 0.000 393.314 200.000 393.314 L 400.000 393.314 400.000 196.657 L 400.000 0.000 200.000 0.000 L 0.000 0.000 0.000 196.657 M116.057 5.640 C 118.883 6.803,120.831 8.364,122.519 10.816 C 125.094 14.559,125.115 14.820,124.990 42.158 L 124.877 66.684 123.587 69.305 C 117.932 80.788,101.161 79.892,97.223 67.896 C 95.983 64.119,95.868 18.568,97.089 14.647 C 99.575 6.659,108.375 2.480,116.057 5.640 M293.884 6.017 C 297.917 7.998,300.744 11.630,301.692 16.049 C 301.948 17.244,302.053 26.755,301.981 42.303 L 301.868 66.684 300.578 69.305 C 295.180 80.267,279.779 80.154,274.680 69.114 L 273.550 66.667 273.440 41.930 C 273.319 14.635,273.305 14.812,275.785 10.916 C 279.401 5.234,287.709 2.985,293.884 6.017 M79.554 51.229 C 79.739 70.438,79.777 70.742,82.777 76.893 C 95.448 102.866,133.229 99.029,140.860 70.993 C 141.661 68.048,141.727 66.771,141.890 51.032 L 142.063 34.218 199.226 34.218 L 256.388 34.218 256.534 51.229 C 256.699 70.485,256.812 71.348,259.976 77.428 C 273.219 102.883,310.263 98.764,317.854 70.993 C 318.662 68.040,318.725 66.811,318.882 51.032 L 319.049 34.218 338.695 34.218 C 360.212 34.218,361.429 34.320,367.355 36.605 C 378.385 40.860,386.353 49.936,389.703 62.063 L 390.757 65.880 390.757 210.619 L 390.757 355.359 389.680 359.264 C 386.106 372.227,376.974 381.784,364.405 385.716 L 360.865 386.824 200.983 386.943 C 83.063 387.030,40.345 386.944,38.221 386.614 C 22.215 384.131,9.749 370.822,7.842 354.179 C 7.568 351.792,7.476 304.217,7.558 208.063 L 7.680 65.487 8.569 62.144 C 11.759 50.158,19.964 40.918,31.340 36.501 C 36.878 34.350,37.498 34.300,59.263 34.258 L 79.391 34.218 79.554 51.229 M36.971 240.476 C 36.971 339.895,36.993 342.970,37.717 345.294 C 39.494 351.005,43.859 355.316,49.951 357.379 C 52.046 358.089,56.763 358.112,199.213 358.112 L 346.313 358.112 348.848 357.197 C 355.069 354.951,359.291 350.475,360.905 344.410 C 361.357 342.712,361.447 325.636,361.451 240.216 L 361.455 138.053 199.213 138.053 L 36.971 138.053 36.971 240.476 M117.601 191.740 L 117.601 208.063 95.575 208.063 L 73.550 208.063 73.550 191.740 L 73.550 175.418 95.575 175.418 L 117.601 175.418 117.601 191.740 M186.824 191.740 L 186.824 208.063 164.807 208.063 L 142.791 208.063 142.683 192.625 C 142.624 184.135,142.633 176.790,142.702 176.303 L 142.828 175.418 164.826 175.418 L 186.824 175.418 186.824 191.740 M255.654 191.740 L 255.654 208.063 233.628 208.063 L 211.603 208.063 211.603 191.740 L 211.603 175.418 233.628 175.418 L 255.654 175.418 255.654 191.740 M324.877 191.740 L 324.877 208.063 302.852 208.063 L 280.826 208.063 280.826 191.740 L 280.826 175.418 302.852 175.418 L 324.877 175.418 324.877 191.740 M117.601 247.984 L 117.601 264.307 95.575 264.307 L 73.550 264.307 73.550 247.984 L 73.550 231.662 95.575 231.662 L 117.601 231.662 117.601 247.984 M186.824 247.984 L 186.824 264.307 164.798 264.307 C 144.084 264.307,142.773 264.266,142.773 263.618 C 142.772 263.240,142.765 256.028,142.757 247.591 C 142.749 239.154,142.749 232.119,142.758 231.957 C 142.766 231.794,152.684 231.662,164.798 231.662 L 186.824 231.662 186.824 247.984 M255.654 247.984 L 255.654 264.307 233.628 264.307 L 211.603 264.307 211.603 247.984 L 211.603 231.662 233.628 231.662 L 255.654 231.662 255.654 247.984 M324.877 247.984 L 324.877 264.307 302.852 264.307 L 280.826 264.307 280.826 247.984 L 280.826 231.662 302.852 231.662 L 324.877 231.662 324.877 247.984 M117.601 304.428 L 117.601 320.951 95.674 320.849 L 73.746 320.747 73.644 304.326 L 73.541 287.906 95.571 287.906 L 117.601 287.906 117.601 304.428 M186.730 304.326 L 186.627 320.747 164.700 320.836 C 147.607 320.905,142.771 320.819,142.766 320.443 C 142.751 319.500,142.744 288.490,142.758 288.201 C 142.766 288.038,152.686 287.906,164.803 287.906 L 186.833 287.906 186.730 304.326 M255.654 304.428 L 255.654 320.951 233.727 320.849 L 211.799 320.747 211.697 304.326 L 211.594 287.906 233.624 287.906 L 255.654 287.906 255.654 304.428 M324.783 304.326 L 324.680 320.747 302.753 320.836 L 280.826 320.925 280.826 304.415 L 280.826 287.906 302.856 287.906 L 324.886 287.906 324.783 304.326 " stroke="none" fill="#fbfbfb" fill-rule="evenodd"></path></g></svg>